<svg xmlns="http://www.w3.org/2000/svg" xmlns:xlink="http://www.w3.org/1999/xlink" width="500" zoomAndPan="magnify" viewBox="0 0 375 374.999991" height="500" preserveAspectRatio="xMidYMid meet" version="1.0"><defs><g/></defs><g fill="#000000" fill-opacity="1"><g transform="translate(31.324221, 263.624987)"><g><path d="M 49.796875 2.6875 C 42.535156 2.6875 35.945312 1.304688 30.03125 -1.453125 C 24.125 -4.210938 19.429688 -8.210938 15.953125 -13.453125 C 12.472656 -18.691406 10.734375 -25.039062 10.734375 -32.5 C 10.734375 -39.0625 12.023438 -44.390625 14.609375 -48.484375 C 17.191406 -52.585938 20.644531 -55.804688 24.96875 -58.140625 C 29.289062 -60.484375 34.070312 -62.238281 39.3125 -63.40625 C 44.5625 -64.570312 49.847656 -65.503906 55.171875 -66.203125 C 62.117188 -67.085938 67.765625 -67.765625 72.109375 -68.234375 C 76.460938 -68.710938 79.644531 -69.523438 81.65625 -70.671875 C 83.675781 -71.816406 84.6875 -73.804688 84.6875 -76.640625 L 84.6875 -77.234375 C 84.6875 -84.585938 82.6875 -90.300781 78.6875 -94.375 C 74.6875 -98.445312 68.632812 -100.484375 60.53125 -100.484375 C 52.132812 -100.484375 45.550781 -98.644531 40.78125 -94.96875 C 36.007812 -91.289062 32.65625 -87.363281 30.71875 -83.1875 L 14.015625 -89.15625 C 16.992188 -96.113281 20.976562 -101.539062 25.96875 -105.4375 C 30.96875 -109.34375 36.4375 -112.078125 42.375 -113.640625 C 48.3125 -115.210938 54.164062 -116 59.9375 -116 C 63.613281 -116 67.847656 -115.5625 72.640625 -114.6875 C 77.441406 -113.820312 82.085938 -112.046875 86.578125 -109.359375 C 91.078125 -106.671875 94.816406 -102.617188 97.796875 -97.203125 C 100.785156 -91.785156 102.28125 -84.53125 102.28125 -75.4375 L 102.28125 0 L 84.6875 0 L 84.6875 -15.5 L 83.796875 -15.5 C 82.597656 -13.019531 80.609375 -10.363281 77.828125 -7.53125 C 75.046875 -4.695312 71.34375 -2.285156 66.71875 -0.296875 C 62.09375 1.691406 56.453125 2.6875 49.796875 2.6875 Z M 52.484375 -13.125 C 59.441406 -13.125 65.316406 -14.488281 70.109375 -17.21875 C 74.898438 -19.945312 78.523438 -23.472656 80.984375 -27.796875 C 83.453125 -32.128906 84.6875 -36.679688 84.6875 -41.453125 L 84.6875 -57.546875 C 83.9375 -56.648438 82.304688 -55.84375 79.796875 -55.125 C 77.285156 -54.40625 74.398438 -53.785156 71.140625 -53.265625 C 67.890625 -52.742188 64.738281 -52.296875 61.6875 -51.921875 C 58.632812 -51.546875 56.160156 -51.234375 54.265625 -50.984375 C 49.691406 -50.390625 45.429688 -49.429688 41.484375 -48.109375 C 37.535156 -46.796875 34.351562 -44.832031 31.9375 -42.21875 C 29.53125 -39.613281 28.328125 -36.078125 28.328125 -31.609375 C 28.328125 -25.492188 30.597656 -20.882812 35.140625 -17.78125 C 39.691406 -14.675781 45.472656 -13.125 52.484375 -13.125 Z M 52.484375 -13.125 "/></g></g></g><g fill="#ff5757" fill-opacity="1"><g transform="translate(149.70703, 263.624987)"><g><path d="M 13.265625 -152.671875 L 53.078125 -152.671875 L 95.125 -50.09375 L 96.90625 -50.09375 L 138.953125 -152.671875 L 178.765625 -152.671875 L 178.765625 0 L 147.453125 0 L 147.453125 -99.375 L 146.1875 -99.375 L 106.671875 -0.75 L 85.359375 -0.75 L 45.84375 -99.75 L 44.578125 -99.75 L 44.578125 0 L 13.265625 0 Z M 13.265625 -152.671875 "/></g></g></g></svg>